<svg xmlns="http://www.w3.org/2000/svg" width="192" height="109"><defs><clipPath id="a"><path fill="#fff" d="M0 0h192v109H0z" data-name="Rectangle 38176" transform="translate(1 -3)"/></clipPath></defs><g clip-path="url(#a)" data-name="Mask Group 53113" transform="translate(-1 3)"><path fill="#fafafa" d="M1-3h192v109H1z" data-name="Rectangle 38175"/><g fill="none" stroke="#f0f4f4" stroke-width="42" data-name="Ellipse 2485" transform="translate(2 -43)"><circle cx="95" cy="95" r="95" stroke="none"/><circle cx="95" cy="95" r="74"/></g><g data-name="shutterstock_1443933218 [Converted]" transform="translate(-400.6 -559.3)"><path fill="#a4b4b6" fill-rule="evenodd" stroke="#a4b4b6" stroke-width=".4" d="M467.5 597H513a1.9 1.9 0 0 1 1.9 1.8v33.3a1.9 1.9 0 0 1-1.9 1.9h-45.6a1.9 1.9 0 0 1-1.9-1.9v-33.3a1.9 1.9 0 0 1 1.9-1.8zm0 1.8v33.3H513v-33.3z" data-name="Path 147673"/><path fill="#a4b4b6" fill-rule="evenodd" stroke="#a4b4b6" stroke-width=".4" d="M475.5 588.3l45.4 4.6a1.9 1.9 0 0 1 1.7 2l-3.4 33.2a1.9 1.9 0 0 1-2 1.6h-.3V628h.5l3.3-33.2-45.4-4.6-.5 5h-1.9l.6-5.2a1.9 1.9 0 0 1 2-1.6z" data-name="Path 147674"/><path fill="#ccd5d6" fill-rule="evenodd" d="M483.5 631l16.2-14.4a3.7 3.7 0 0 1 4.8 0l7.4 6.6v7.7z" data-name="Path 147675"/><path fill="#ccd5d6" fill-rule="evenodd" d="M468.7 623.6l10.8-12.6a3 3 0 0 1 4.5 0l13.7 16a4.2 4.2 0 0 1 .8 4h-29.8v-7.4z" data-name="Path 147676"/><circle cx="3.3" cy="3.3" r="3.3" fill="#ccd5d6" data-name="Ellipse 2486" transform="rotate(-26.1 1554.4 -768.2)"/></g></g></svg>